#!OML:ASF F:\VICON\USERDATA\INSTALL\rory3\rory3.ASF
:FULLY-SPECIFIED
:DEGREES
919
root -5.28227 17.8224 -5.53629 14.0658 15.2344 8.91776
lowerback 12.2492 -1.57397 -0.873498
upperback 5.18899 -1.92617 7.17318
thorax -1.11668 -1.02781 8.34711
lowerneck -3.86748 -15.1779 -10.5247
upperneck -0.392299 -19.8985 6.58389
head 2.37999 -9.89769 2.95118
rclavicle 7.95139e-015 -2.8625e-014
rhumerus 8.966 -4.9424 -81.8952
rradius 23.7259
rwrist -13.5944
rhand -19.7797 -23.1286
rfingers 7.12502
rthumb 6.55252 -53.0072
lclavicle 7.95139e-015 -2.8625e-014
lhumerus -21.618 -48.2959 98.2006
lradius 64.1452
lwrist 67.594
lhand -21.4939 52.937
lfingers 7.12502
lthumb 4.89749 -997.14
rfemur -31.3307 -5.5731 6.05241
rtibia 37.8166
rfoot -15.9938 -7.8233
rtoes 1.04701
lfemur -15.4498 -6.2512 -18.0677
ltibia 23.6731
lfoot -9.30708 -3.94779
ltoes -26.9535
920
root -5.2445 17.8071 -5.57895 14.1612 15.7452 9.16665
lowerback 12.2452 -1.4487 -0.830171
upperback 5.0839 -1.74521 7.26976
thorax -1.25048 -0.930839 8.40754
lowerneck -3.76196 -15.4349 -10.3909
upperneck -0.534634 -20.2511 6.42244
head 2.30515 -10.0769 2.86452
rclavicle 9.54166e-015 -1.33583e-013
rhumerus 8.99235 -3.15662 -82.1708
rradius 23.3868
rwrist -13.4018
rhand -19.3787 -21.2805
rfingers 7.12502
rthumb 6.93956 -51.1468
lclavicle 9.54166e-015 -1.33583e-013
lhumerus -22.179 -47.7022 98.0758
lradius 63.9764
lwrist 68.4301
lhand -23.9654 52.8958
lfingers 7.12502
lthumb 2.51079 -997.139
rfemur -31.3888 -5.81087 5.60523
rtibia 38.0711
rfoot -16.1114 -7.9189
rtoes 1.27729
lfemur -15.4217 -5.77501 -18.5606
ltibia 23.2194
lfoot -9.54177 -4.26535
ltoes -25.137
921
root -5.2078 17.786 -5.62127 14.1599 16.2781 9.31563
lowerback 12.2292 -1.29322 -0.726823
upperback 5.10066 -1.52254 7.39314
thorax -1.25678 -0.817739 8.45345
lowerneck -3.84239 -15.727 -10.1881
upperneck -0.69167 -20.6371 6.28474
head 2.25428 -10.2699 2.75851
rclavicle 3.81667e-014 -2.22639e-014
rhumerus 9.16068 -0.876134 -82.141
rradius 23.5166
rwrist -13.4466
rhand -18.1735 -22.5502
rfingers 7.12502
rthumb 8.10285 -52.3748
lclavicle 3.81667e-014 -2.22639e-014
lhumerus -22.3666 -47.2289 97.6727
lradius 64.0771
lwrist 69.5611
lhand -25.0586 54.1512
lfingers 7.12502
lthumb 1.45502 -995.874
rfemur -31.3672 -6.00617 5.26489
rtibia 38.2979
rfoot -16.2023 -8.11085
rtoes 0.968461
lfemur -15.2911 -5.28901 -18.9672
ltibia 22.8006
lfoot -9.89899 -4.43356
ltoes -25.1839
922
root -5.16967 17.7602 -5.66117 14.1979 16.7708 9.3429
lowerback 11.9644 -1.09968 -0.398933
upperback 5.16866 -1.23937 7.46087
thorax -1.09125 -0.675597 8.28724
lowerneck -3.83734 -16.0311 -10.0472
upperneck -0.852389 -21.0491 6.37354
head 2.2261 -10.4748 2.73654
rclavicle 1.59028e-014 2.22639e-014
rhumerus 9.37003 0.551737 -82.3892
rradius 23.4801
rwrist -13.1331
rhand -16.4362 -24.3168
rfingers 7.12502
rthumb 9.7793 -54.0697
lclavicle 1.59028e-014 2.22639e-014
lhumerus -22.4468 -46.6901 97.1658
lradius 64.0234
lwrist 70.2943
lhand -25.7783 56.3154
lfingers 7.12502
lthumb 0.759897 -993.706
rfemur -31.4273 -6.146 5.05321
rtibia 38.527
rfoot -16.3414 -8.28104
rtoes 0.801219
lfemur -15.1404 -4.79953 -19.2637
ltibia 22.3806
lfoot -10.3405 -4.49082
ltoes -26.3005
923
root -5.13375 17.7497 -5.70215 14.1662 17.3532 9.49532
lowerback 11.947 -0.950384 -0.18025
upperback 5.16147 -1.01395 7.50553
thorax -1.12649 -0.557362 8.17884
lowerneck -3.65102 -16.3112 -9.89015
upperneck -1.10153 -21.4418 6.35757
head 2.11843 -10.6742 2.7034
rclavicle 2.38542e-014 6.36111e-015
rhumerus 9.46563 1.62872 -82.772
rradius 23.4761
rwrist -12.1264
rhand -15.3399 -23.3983
rfingers 7.12502
rthumb 10.8369 -53.0987
lclavicle 2.38542e-014 6.36111e-015
lhumerus -22.9123 -46.3311 96.9037
lradius 63.9844
lwrist 71.704
lhand -27.3536 55.9941
lfingers 7.12502
lthumb -0.761642 -994.028
rfemur -31.2453 -6.28932 4.71265
rtibia 38.6779
rfoot -16.505 -8.33678
rtoes 1.84493
lfemur -15.0375 -4.56371 -19.6287
ltibia 22.0421
lfoot -10.6212 -4.68375
ltoes -26.6094
924
root -5.09569 17.7384 -5.74613 14.186 18.0266 9.68927
lowerback 11.9955 -0.876754 -0.0806419
upperback 5.11182 -0.893993 7.60647
thorax -1.22199 -0.492221 8.21875
lowerneck -3.59326 -16.5376 -9.8093
upperneck -1.20698 -21.7514 6.40023
head 2.0924 -10.8296 2.68805
rclavicle 5.08889e-014 -4.45278e-014
rhumerus 9.52923 3.15683 -83.0836
rradius 23.4875
rwrist -11.7452
rhand -14.53 -22.6242
rfingers 7.12502
rthumb 11.618 -52.2822
lclavicle 5.08889e-014 -4.45278e-014
lhumerus -23.2299 -45.6599 96.575
lradius 63.7459
lwrist 72.2513
lhand -26.8874 55.1891
lfingers 7.12502
lthumb -0.311365 -994.831
rfemur -31.07 -6.55756 4.33892
rtibia 38.783
rfoot -16.6789 -8.39001
rtoes 2.36648
lfemur -15.0145 -4.51534 -19.9916
ltibia 21.8
lfoot -10.9635 -4.89651
ltoes -26.5818
925
root -5.05549 17.7293 -5.7916 14.2043 18.5692 9.79293
lowerback 11.9379 -0.787039 0.074042
upperback 5.14715 -0.758382 7.66245
thorax -1.17451 -0.422814 8.16978
lowerneck -3.64576 -16.7345 -9.511
upperneck -1.34279 -22.019 6.3649
head 2.03377 -10.9637 2.61599
rclavicle 2.70347e-014 -8.26944e-014
rhumerus 9.7402 4.37733 -83.5604
rradius 23.7325
rwrist -11.8862
rhand -13.9089 -22.7523
rfingers 7.12502
rthumb 12.217 -52.3755
lclavicle 2.70347e-014 -8.26944e-014
lhumerus -23.3227 -44.5809 95.9436
lradius 63.7515
lwrist 72.0521
lhand -25.7682 55.8555
lfingers 7.12502
lthumb 0.769666 -994.166
rfemur -30.9573 -6.74278 4.04593
rtibia 38.8624
rfoot -16.7442 -8.54723
rtoes 2.36219
lfemur -15.0505 -4.55137 -20.2889
ltibia 21.6359
lfoot -11.2668 -4.90145
ltoes -25.5041
926
root -5.01595 17.7186 -5.83999 14.2607 18.9942 9.93408
lowerback 12.0401 -0.608956 0.126619
upperback 5.06822 -0.502537 7.74609
thorax -1.34895 -0.288517 8.20185
lowerneck -3.44691 -16.9453 -9.43602
upperneck -1.60055 -22.3169 6.49494
head 1.94376 -11.1154 2.65021
rclavicle -3.49861e-014 -1.27222e-014
rhumerus 9.8476 5.05518 -84.0063
rradius 24.2573
rwrist -11.6671
rhand -12.4916 -24.5955
rfingers 7.12502
rthumb 13.5833 -54.1323
lclavicle -3.49861e-014 -1.27222e-014
lhumerus -23.8474 -43.6958 95.7443
lradius 63.9044
lwrist 72.1206
lhand -25.5119 55.7486
lfingers 7.12502
lthumb 1.01718 -994.274
rfemur -30.9555 -6.74409 3.66361
rtibia 39.014
rfoot -16.8224 -8.77684
rtoes 2.27824
lfemur -15.1314 -4.57024 -20.6729
ltibia 21.4705
lfoot -11.4075 -4.75401
ltoes -24.457
927
root -4.97355 17.6971 -5.88874 14.3846 19.4756 10.0942
lowerback 12.1125 -0.460199 0.225698
upperback 4.95025 -0.278665 7.83148
thorax -1.54452 -0.168677 8.21132
lowerneck -3.39092 -17.1701 -9.49736
upperneck -1.68564 -22.6201 6.67534
head 1.96135 -11.2663 2.69435
rclavicle 0 -3.49861e-014
rhumerus 9.91781 5.36965 -84.5373
rradius 24.6107
rwrist -10.8099
rhand -10.6262 -26.0094
rfingers 7.12502
rthumb 15.3805 -55.4173
lclavicle 0 -3.49861e-014
lhumerus -24.4388 -42.8655 95.6019
lradius 64.116
lwrist 72.6079
lhand -26.2715 56.4343
lfingers 7.12502
lthumb 0.283541 -993.586
rfemur -31.004 -6.87778 3.26812
rtibia 39.1831
rfoot -17.034 -8.86945
rtoes 2.60729
lfemur -15.2245 -4.58628 -21.0671
ltibia 21.3085
lfoot -11.5442 -4.65359
ltoes -23.4703
928
root -4.92919 17.6692 -5.93674 14.4953 19.9614 10.2769
lowerback 12.1161 -0.328875 0.335875
upperback 4.89802 -0.0842279 7.89809
thorax -1.62921 -0.0667676 8.19431
lowerneck -3.48171 -17.3845 -9.45359
upperneck -1.70371 -22.9006 6.72929
head 1.99383 -11.4049 2.67158
rclavicle 2.22639e-014 -6.99722e-014
rhumerus 10.0186 5.69449 -85.1216
rradius 24.6822
rwrist -10.6659
rhand -10.1259 -25.6541
rfingers 7.12502
rthumb 15.8624 -55.0243
lclavicle 2.22639e-014 -6.99722e-014
lhumerus -24.6593 -41.95 95.2716
lradius 64.3147
lwrist 72.9617
lhand -26.9443 57.971
lfingers 7.12502
lthumb -0.36625 -992.05
rfemur -31.0112 -7.03144 2.85038
rtibia 39.354
rfoot -17.1981 -8.98551
rtoes 3.16375
lfemur -15.2455 -4.67544 -21.4792
ltibia 21.1639
lfoot -11.7323 -4.53417
ltoes -22.5858
